<mxfile host="65bd71144e">
    <diagram id="W-Y1W1CtYA3KEkmKxCmO" name="Page-1">
        <mxGraphModel dx="751" dy="383" grid="1" gridSize="10" guides="1" tooltips="1" connect="1" arrows="1" fold="1" page="1" pageScale="1" pageWidth="827" pageHeight="1169" math="0" shadow="0">
            <root>
                <mxCell id="0"/>
                <mxCell id="1" parent="0"/>
                <mxCell id="2" value="" style="rounded=0;whiteSpace=wrap;html=1;" vertex="1" parent="1">
                    <mxGeometry x="200" y="200" width="280" height="360" as="geometry"/>
                </mxCell>
                <mxCell id="3" value=".card" style="text;html=1;strokeColor=none;fillColor=none;align=center;verticalAlign=middle;whiteSpace=wrap;rounded=0;" vertex="1" parent="1">
                    <mxGeometry x="190" y="170" width="60" height="30" as="geometry"/>
                </mxCell>
                <mxCell id="4" value="img" style="rounded=0;whiteSpace=wrap;html=1;" vertex="1" parent="1">
                    <mxGeometry x="210" y="210" width="260" height="100" as="geometry"/>
                </mxCell>
                <mxCell id="5" value="" style="rounded=0;whiteSpace=wrap;html=1;" vertex="1" parent="1">
                    <mxGeometry x="210" y="320" width="260" height="230" as="geometry"/>
                </mxCell>
                <mxCell id="7" value=".card-title" style="rounded=0;whiteSpace=wrap;html=1;" vertex="1" parent="1">
                    <mxGeometry x="220" y="340" width="240" height="30" as="geometry"/>
                </mxCell>
                <mxCell id="6" value=".card-body" style="text;html=1;strokeColor=none;fillColor=none;align=center;verticalAlign=middle;whiteSpace=wrap;rounded=0;" vertex="1" parent="1">
                    <mxGeometry x="210" y="320" width="60" height="30" as="geometry"/>
                </mxCell>
                <mxCell id="8" value=".card-subtitle" style="rounded=0;whiteSpace=wrap;html=1;" vertex="1" parent="1">
                    <mxGeometry x="220" y="380" width="240" height="30" as="geometry"/>
                </mxCell>
                <mxCell id="9" value=".card-text" style="rounded=0;whiteSpace=wrap;html=1;" vertex="1" parent="1">
                    <mxGeometry x="220" y="420" width="240" height="90" as="geometry"/>
                </mxCell>
                <mxCell id="10" value="btn" style="rounded=1;whiteSpace=wrap;html=1;" vertex="1" parent="1">
                    <mxGeometry x="305" y="520" width="70" height="20" as="geometry"/>
                </mxCell>
            </root>
        </mxGraphModel>
    </diagram>
</mxfile>